# xmcd CD database file
#
# Track frame offsets:
#	150
#	28690
#	34125
#	43736
#	70652
#	75353
#	90976
#	96842
#	102304
#	132454
#	136805
#	163430
#	201155
#
# Disc length: 2982 seconds
#
# Revision: 0
# Processed by: cddbd v1.5.2PL0 Copyright (c) Steve Scherf et al.
# Submitted via: CDex 1.51
#
DISCID=ab0ba40d
DTITLE=Samy Thiébault - Upanishad experiences
DYEAR=2010
DGENRE=Jazz
TTITLE0=Troisième Mue
TTITLE1=Troisième Mue, Final
TTITLE2=L'Albatros, Introduction
TTITLE3=L'Albatros
TTITLE4=Puis La Nuit, Prélude
TTITLE5=Puis La Nuit
TTITLE6=Puis La Nuit, Interlude
TTITLE7=Puis La Nuit, Final
TTITLE8=Danse d'Astres
TTITLE9=Mes Roses, Introduction
TTITLE10=Mes Roses
TTITLE11=Colombe, Serpent et Cochon (live version)
TTITLE12=Untitled 02
EXTD=YEAR: 2010
EXTT0=
EXTT1=
EXTT2=
EXTT3=
EXTT4=
EXTT5=
EXTT6=
EXTT7=
EXTT8=
EXTT9=
EXTT10=
EXTT11=
EXTT12=
PLAYORDER=
